<?xml version="1.0" standalone="no"?>
<!DOCTYPE svg PUBLIC "-//W3C//DTD SVG 20010904//EN"
 "http://www.w3.org/TR/2001/REC-SVG-20010904/DTD/svg10.dtd">
<svg version="1.0" xmlns="http://www.w3.org/2000/svg"
 width="225.000000pt" height="225.000000pt" viewBox="0 0 225.000000 225.000000"
 preserveAspectRatio="xMidYMid meet">

<g transform="translate(0.000000,225.000000) scale(0.100000,-0.100000)"
fill="#000000" stroke="none">
<path d="M855 1789 c-31 -17 -465 -451 -481 -481 -21 -39 -18 -107 7 -147 l21
-34 314 314 c173 173 314 316 314 319 0 3 -13 13 -29 23 -33 19 -115 22 -146
6z"/>
<path d="M1248 1784 c-16 -8 -28 -18 -28 -22 0 -4 141 -148 314 -321 l314
-314 16 25 c22 33 30 80 21 125 -6 33 -39 71 -233 266 -125 126 -239 235 -254
243 -35 18 -115 17 -150 -2z"/>
<path d="M381 1089 c-23 -37 -27 -92 -11 -136 12 -32 441 -467 482 -489 36
-19 102 -18 144 2 19 9 34 19 34 23 0 3 -141 147 -314 320 l-314 314 -21 -34z"/>
</g>
</svg>
